<svg width="24" height="15" viewBox="0 0 24 15" fill="none" xmlns="http://www.w3.org/2000/svg">
<path fill-rule="evenodd" clip-rule="evenodd" d="M8.56029 14.5603C8.279 14.8418 7.89753 15 7.49978 15C7.10203 15 6.72056 14.8418 6.43927 14.5603L0.439185 8.55276C0.157975 8.27112 0 7.88918 0 7.49093C0 7.09269 0.157975 6.71075 0.439185 6.42911L6.43927 0.421595C6.72217 0.148016 7.10108 -0.00336513 7.49438 5.67747e-05C7.88768 0.00347868 8.26391 0.16143 8.54202 0.43989C8.82014 0.718351 8.97789 1.09504 8.98131 1.48883C8.98473 1.88261 8.83353 2.26199 8.56029 2.54525L5.12075 5.98906H22.5C22.8978 5.98906 23.2793 6.14729 23.5607 6.42895C23.842 6.7106 24 7.09261 24 7.49093C24 7.88926 23.842 8.27126 23.5607 8.55292C23.2793 8.83458 22.8978 8.99281 22.5 8.99281H5.12075L8.56029 12.4366C8.8415 12.7183 8.99948 13.1002 8.99948 13.4984C8.99948 13.8967 8.8415 14.2786 8.56029 14.5603Z" fill="#AAB7C6"/>
</svg>
