<svg width="18" height="21" viewBox="0 0 18 21" fill="none" xmlns="http://www.w3.org/2000/svg">
<path d="M1 5.03613H17M16 5.03613L15.133 17.1781C15.0971 17.6827 14.8713 18.1549 14.5011 18.4997C14.1309 18.8445 13.6439 19.0361 13.138 19.0361H4.862C4.35614 19.0361 3.86907 18.8445 3.49889 18.4997C3.1287 18.1549 2.90292 17.6827 2.867 17.1781L2 5.03613H16ZM7 9.03613V15.0361V9.03613ZM11 9.03613V15.0361V9.03613ZM12 5.03613V2.03613C12 1.77092 11.8946 1.51656 11.7071 1.32903C11.5196 1.14149 11.2652 1.03613 11 1.03613H7C6.73478 1.03613 6.48043 1.14149 6.29289 1.32903C6.10536 1.51656 6 1.77092 6 2.03613V5.03613H12Z" stroke="#AAB7C6" stroke-width="2" stroke-linecap="round" stroke-linejoin="round"/>
</svg>
