<svg width="12" height="12" viewBox="0 0 12 12" fill="none" xmlns="http://www.w3.org/2000/svg">
<path d="M11.5312 0H0.46875C0.209839 0 0 0.209839 0 0.46875V11.5312C0 11.7902 0.209839 12 0.46875 12H11.5312C11.7902 12 12 11.7902 12 11.5312V0.46875C12 0.209839 11.7902 0 11.5312 0ZM11.0625 11.0625H0.9375V0.9375H11.0625V11.0625ZM4.26562 3.23438C4.26562 2.97546 4.47546 2.76562 4.73438 2.76562H9.39844C9.65735 2.76562 9.86719 2.97546 9.86719 3.23438C9.86719 3.49329 9.65735 3.70312 9.39844 3.70312H4.73438C4.47546 3.70312 4.26562 3.49329 4.26562 3.23438ZM2.13281 6C2.13281 5.74109 2.34265 5.53125 2.60156 5.53125H9.39844C9.65735 5.53125 9.86719 5.74109 9.86719 6C9.86719 6.25891 9.65735 6.46875 9.39844 6.46875H2.60156C2.34265 6.46875 2.13281 6.25891 2.13281 6ZM2.13281 8.76562C2.13281 8.50671 2.34265 8.29688 2.60156 8.29688H9.39844C9.65735 8.29688 9.86719 8.50671 9.86719 8.76562C9.86719 9.02454 9.65735 9.23438 9.39844 9.23438H2.60156C2.34265 9.23438 2.13281 9.02454 2.13281 8.76562Z" fill="#AAB7C6"/>
</svg>
