<svg width="35" height="39" viewBox="0 0 35 39" fill="none" xmlns="http://www.w3.org/2000/svg">
<path d="M10.6229 26.4971C8.47375 26.4985 6.4016 25.6842 4.81305 24.2139C3.22451 22.7436 2.23424 20.7234 2.03655 18.5497C1.83886 16.3761 2.44802 14.2058 3.7445 12.4648C5.04098 10.7238 6.93119 9.53772 9.04427 9.13927C9.41542 7.13263 10.4653 5.32082 12.0124 4.01717C13.5595 2.71352 15.5065 2 17.5166 2C19.5268 2 21.4738 2.71352 23.0209 4.01717C24.568 5.32082 25.6179 7.13263 25.989 9.13927C28.095 9.54582 29.9763 10.7348 31.2659 12.4741C32.5554 14.2135 33.1606 16.3785 32.9634 18.5466C32.7662 20.7148 31.7808 22.7305 30.1994 24.2005C28.618 25.6705 26.554 26.4893 24.4104 26.4971M12.3464 31.7485L17.5166 37M17.5166 37L22.6869 31.7485M17.5166 37V15.9942" stroke="#AAB7C6" stroke-width="3" stroke-linecap="round" stroke-linejoin="round"/>
</svg>
