<svg width="10" height="6" viewBox="0 0 10 6" fill="none" xmlns="http://www.w3.org/2000/svg">
<path d="M8.71655 0.512552C8.85799 0.372506 9.04899 0.293945 9.24803 0.293945C9.44708 0.293945 9.63807 0.372506 9.77951 0.512552C9.84935 0.581322 9.9048 0.663294 9.94265 0.753698C9.98051 0.844102 10 0.941132 10 1.03914C10 1.13715 9.98051 1.23418 9.94265 1.32458C9.9048 1.41499 9.84935 1.49696 9.77951 1.56573L5.53202 5.72844C5.39026 5.8683 5.19913 5.94671 5 5.94671C4.80087 5.94671 4.60974 5.8683 4.46798 5.72844L0.220486 1.56573C0.150654 1.49696 0.0951987 1.41499 0.057346 1.32458C0.0194934 1.23418 0 1.13715 0 1.03914C0 0.941132 0.0194934 0.844102 0.057346 0.753698C0.0951987 0.663294 0.150654 0.581322 0.220486 0.512552C0.361925 0.372506 0.552923 0.293945 0.751966 0.293945C0.951008 0.293945 1.14201 0.372506 1.28345 0.512552L5.00163 3.92641L8.71655 0.512552Z" fill="#848F9F"/>
</svg>
