<svg width="16" height="15" viewBox="0 0 16 15" fill="none" xmlns="http://www.w3.org/2000/svg">
<path d="M13.5943 4.77917C13.0993 4.78056 12.6169 4.93501 12.2132 5.22133C11.8095 5.50766 11.5042 5.91185 11.3392 6.37849H0.799663C0.587579 6.37849 0.384182 6.46274 0.234216 6.61271C0.0842499 6.76268 0 6.96607 0 7.17816C0 7.39024 0.0842499 7.59364 0.234216 7.74361C0.384182 7.89357 0.587579 7.97782 0.799663 7.97782H11.3392C11.4859 8.39275 11.7439 8.75933 12.085 9.03743C12.4261 9.31554 12.8371 9.49447 13.2731 9.55462C13.7091 9.61478 14.1532 9.55385 14.5568 9.3785C14.9605 9.20315 15.3081 8.92015 15.5617 8.56045C15.8153 8.20076 15.9651 7.77824 15.9946 7.33913C16.0241 6.90002 15.9323 6.46126 15.7292 6.07084C15.526 5.68043 15.2194 5.35342 14.8429 5.1256C14.4663 4.89778 14.0344 4.77793 13.5943 4.77917ZM13.5943 7.97782C13.4361 7.97782 13.2815 7.93092 13.15 7.84305C13.0185 7.75519 12.916 7.6303 12.8555 7.48418C12.795 7.33806 12.7791 7.17727 12.81 7.02215C12.8408 6.86703 12.917 6.72455 13.0288 6.61271C13.1407 6.50088 13.2831 6.42472 13.4383 6.39386C13.5934 6.363 13.7542 6.37884 13.9003 6.43937C14.0464 6.49989 14.1713 6.60238 14.2592 6.73389C14.347 6.86539 14.3939 7.02 14.3939 7.17816C14.3939 7.39024 14.3097 7.59364 14.1597 7.74361C14.0098 7.89357 13.8064 7.97782 13.5943 7.97782ZM0.799663 3.17984H1.74327C1.91136 3.64297 2.21797 4.04311 2.62143 4.32589C3.02489 4.60866 3.50563 4.76036 3.99832 4.76036C4.491 4.76036 4.97174 4.60866 5.3752 4.32589C5.77866 4.04311 6.08527 3.64297 6.25337 3.17984H15.1936C15.4057 3.17984 15.6091 3.09559 15.759 2.94563C15.909 2.79566 15.9933 2.59226 15.9933 2.38018C15.9933 2.16809 15.909 1.9647 15.759 1.81473C15.6091 1.66477 15.4057 1.58052 15.1936 1.58052H6.25337C6.08527 1.11739 5.77866 0.717247 5.3752 0.434472C4.97174 0.151696 4.491 0 3.99832 0C3.50563 0 3.02489 0.151696 2.62143 0.434472C2.21797 0.717247 1.91136 1.11739 1.74327 1.58052H0.799663C0.587579 1.58052 0.384182 1.66477 0.234216 1.81473C0.0842499 1.9647 0 2.16809 0 2.38018C0 2.59226 0.0842499 2.79566 0.234216 2.94563C0.384182 3.09559 0.587579 3.17984 0.799663 3.17984ZM3.99832 1.58052C4.15647 1.58052 4.31108 1.62742 4.44258 1.71528C4.57409 1.80315 4.67658 1.92804 4.73711 2.07416C4.79763 2.22028 4.81347 2.38107 4.78261 2.53619C4.75176 2.6913 4.6756 2.83379 4.56376 2.94563C4.45193 3.05746 4.30944 3.13362 4.15432 3.16448C3.9992 3.19533 3.83842 3.1795 3.6923 3.11897C3.54618 3.05845 3.42129 2.95595 3.33342 2.82445C3.24555 2.69294 3.19865 2.53834 3.19865 2.38018C3.19865 2.16809 3.2829 1.9647 3.43287 1.81473C3.58283 1.66477 3.78623 1.58052 3.99832 1.58052ZM15.1936 11.1765H9.45202C9.28393 10.7133 8.97731 10.3132 8.57386 10.0304C8.1704 9.74765 7.68966 9.59596 7.19697 9.59596C6.70428 9.59596 6.22354 9.74765 5.82008 10.0304C5.41662 10.3132 5.11001 10.7133 4.94192 11.1765H0.799663C0.587579 11.1765 0.384182 11.2607 0.234216 11.4107C0.0842499 11.5607 0 11.7641 0 11.9761C0 12.1882 0.0842499 12.3916 0.234216 12.5416C0.384182 12.6916 0.587579 12.7758 0.799663 12.7758H4.94192C5.11001 13.2389 5.41662 13.6391 5.82008 13.9218C6.22354 14.2046 6.70428 14.3563 7.19697 14.3563C7.68966 14.3563 8.1704 14.2046 8.57386 13.9218C8.97731 13.6391 9.28393 13.2389 9.45202 12.7758H15.1936C15.4057 12.7758 15.6091 12.6916 15.759 12.5416C15.909 12.3916 15.9933 12.1882 15.9933 11.9761C15.9933 11.7641 15.909 11.5607 15.759 11.4107C15.6091 11.2607 15.4057 11.1765 15.1936 11.1765ZM7.19697 12.7758C7.03881 12.7758 6.8842 12.7289 6.7527 12.641C6.62119 12.5532 6.5187 12.4283 6.45818 12.2822C6.39765 12.136 6.38181 11.9752 6.41267 11.8201C6.44353 11.665 6.51969 11.5225 6.63152 11.4107C6.74336 11.2989 6.88584 11.2227 7.04096 11.1918C7.19608 11.161 7.35687 11.1768 7.50299 11.2373C7.64911 11.2979 7.774 11.4004 7.86186 11.5319C7.94973 11.6634 7.99663 11.818 7.99663 11.9761C7.99663 12.1882 7.91238 12.3916 7.76242 12.5416C7.61245 12.6916 7.40905 12.7758 7.19697 12.7758Z" fill="#5F738C"/>
</svg>
