<svg width="24" height="24" viewBox="0 0 24 24" fill="none" xmlns="http://www.w3.org/2000/svg">
<g clip-path="url(#clip0)">
<path d="M6.74707 17.9443C7.62085 17.2639 8.18445 16.203 8.18445 15.0125C8.18445 12.9637 6.51746 11.2969 4.46869 11.2969C2.41992 11.2969 0.753113 12.9637 0.753113 15.0125C0.753113 16.203 1.31671 17.2639 2.19031 17.9443C0.957275 18.6779 0 20.0632 0 21.7906V23.2969C0 23.6852 0.314758 24 0.703125 24H8.23444C8.62262 24 8.93756 23.6852 8.93756 23.2969V21.7906C8.93756 20.0636 7.98047 18.678 6.74707 17.9443ZM2.15936 15.0125C2.15936 13.7391 3.19537 12.7031 4.46887 12.7031C5.74219 12.7031 6.7782 13.7391 6.7782 15.0125C6.7782 16.2859 5.74219 17.322 4.46887 17.322C3.19537 17.322 2.15936 16.2859 2.15936 15.0125ZM7.53131 22.5938H1.40625V21.7906C1.40625 20.0991 2.77478 18.7282 4.46869 18.7282C6.16022 18.7282 7.53113 20.0967 7.53113 21.7906V22.5938H7.53131Z" fill="#848F9F"/>
<path d="M21.0376 0H12.0001C10.3638 0 9.0376 1.32385 9.0376 2.96246V16.5187C9.0376 17.0938 9.69714 17.4302 10.1626 17.0812L12.9876 14.9625H21.0376C22.6738 14.9625 24.0001 13.6386 24.0001 12V2.96246C24.0001 1.32623 22.6762 0 21.0376 0V0ZM22.5938 12C22.5938 12.8602 21.8982 13.5562 21.0376 13.5562H12.7532C12.601 13.5562 12.4531 13.6057 12.3313 13.6968L10.4438 15.1124V2.96246C10.4438 2.10223 11.1395 1.40625 12.0001 1.40625H21.0376C21.8978 1.40625 22.5938 2.10187 22.5938 2.96246V12Z" fill="#848F9F"/>
<path d="M20.2842 3.7654H12.7529C12.3646 3.7654 12.0498 4.08034 12.0498 4.46852C12.0498 4.85689 12.3646 5.17165 12.7529 5.17165H20.2842C20.6724 5.17165 20.9874 4.85689 20.9874 4.46852C20.9874 4.08034 20.6726 3.7654 20.2842 3.7654Z" fill="#848F9F"/>
<path d="M20.2842 6.77829H12.7529C12.3646 6.77829 12.0498 7.09305 12.0498 7.48141C12.0498 7.8696 12.3646 8.18454 12.7529 8.18454H20.2842C20.6724 8.18454 20.9874 7.8696 20.9874 7.48141C20.9874 7.09305 20.6726 6.77829 20.2842 6.77829Z" fill="#848F9F"/>
<path d="M16.5185 9.79076H12.7529C12.3646 9.79076 12.0498 10.1055 12.0498 10.4939C12.0498 10.8822 12.3646 11.197 12.7529 11.197H16.5185C16.9069 11.197 17.2216 10.8822 17.2216 10.4939C17.2216 10.1055 16.9069 9.79076 16.5185 9.79076Z" fill="#848F9F"/>
</g>
<defs>
<clipPath id="clip0">
<rect width="24" height="24" fill="white"/>
</clipPath>
</defs>
</svg>
