<svg width="56" height="56" viewBox="0 0 56 56" fill="none" xmlns="http://www.w3.org/2000/svg">
<g clip-path="url(#clip0)">
<path d="M15.7432 41.8701C17.782 40.2825 19.097 37.807 19.097 35.0291C19.097 30.2486 15.2074 26.3594 10.4269 26.3594C5.64648 26.3594 1.75726 30.2486 1.75726 35.0291C1.75726 37.807 3.07233 40.2825 5.11072 41.8701C2.23364 43.5817 0 46.8142 0 50.8448V54.3594C0 55.2656 0.734436 56 1.64062 56H19.2137C20.1194 56 20.8543 55.2656 20.8543 54.3594V50.8448C20.8543 46.8151 18.6211 43.5821 15.7432 41.8701ZM5.03851 35.0291C5.03851 32.058 7.45587 29.6406 10.4274 29.6406C13.3984 29.6406 15.8158 32.058 15.8158 35.0291C15.8158 38.0005 13.3984 40.4179 10.4274 40.4179C7.45587 40.4179 5.03851 38.0005 5.03851 35.0291ZM17.5731 52.7188H3.28125V50.8448C3.28125 46.8979 6.47449 43.6992 10.4269 43.6992C14.3738 43.6992 17.5726 46.8924 17.5726 50.8448V52.7188H17.5731Z" fill="#848F9F"/>
<path d="M49.0877 0H28.0001C24.1822 0 21.0876 3.08899 21.0876 6.91241V38.5436C21.0876 39.8856 22.6266 40.6704 23.7126 39.8561L30.3042 34.9124H49.0877C52.9056 34.9124 56.0001 31.8234 56.0001 28V6.91241C56.0001 3.09454 52.9111 0 49.0877 0V0ZM52.7188 28C52.7188 30.0072 51.0957 31.6312 49.0877 31.6312H29.7573C29.4023 31.6312 29.0571 31.7465 28.773 31.9593L24.3689 35.2623V6.91241C24.3689 4.90521 25.992 3.28125 28.0001 3.28125H49.0877C51.0949 3.28125 52.7188 4.90436 52.7188 6.91241V28Z" fill="#848F9F"/>
<ellipse cx="38.7334" cy="17.2667" rx="1.86667" ry="1.86667" fill="#848F9F"/>
<ellipse cx="29.8667" cy="17.2667" rx="1.86667" ry="1.86667" fill="#848F9F"/>
<ellipse cx="47.6001" cy="17.2667" rx="1.86667" ry="1.86667" fill="#848F9F"/>
</g>
<defs>
<clipPath id="clip0">
<rect width="56" height="56" fill="white"/>
</clipPath>
</defs>
</svg>
