<svg width="14" height="15" viewBox="0 0 14 15" fill="none" xmlns="http://www.w3.org/2000/svg">
<path d="M9.12521 3.86112L4.33554 8.63057C4.19662 8.76417 4.08581 8.92399 4.00958 9.1007C3.93336 9.2774 3.89323 9.46746 3.89155 9.65977C3.88987 9.85208 3.92668 10.0428 3.99981 10.2208C4.07294 10.3988 4.18094 10.5605 4.31751 10.6965C4.45408 10.8325 4.61648 10.94 4.79523 11.0129C4.97398 11.0857 5.16551 11.1223 5.35864 11.1207C5.55176 11.119 5.74262 11.079 5.92008 11.0031C6.09753 10.9272 6.25803 10.8169 6.3922 10.6785L11.0568 5.9091C11.5867 5.36277 11.8799 4.63106 11.8733 3.87155C11.8666 3.11204 11.5607 2.3855 11.0214 1.84843C10.482 1.31135 9.75239 1.00671 8.98965 1.00011C8.22692 0.99351 7.4921 1.28548 6.94346 1.81314L2.27815 6.58186C1.45976 7.39679 1 8.50207 1 9.65456C1 10.807 1.45976 11.9123 2.27815 12.7272C3.09653 13.5422 4.2065 14 5.36387 14C6.52124 14 7.63121 13.5422 8.44959 12.7272L13 8.2062" stroke="#AAB7C6" stroke-linecap="round" stroke-linejoin="round"/>
</svg>
