<svg width="92" height="36" viewBox="0 0 92 36" fill="none" xmlns="http://www.w3.org/2000/svg">
<path d="M31.7853 22.4306C35.2336 22.4306 37.8769 20.863 39.5541 18.7947L36.723 16.4102C35.5691 17.8198 33.8113 18.8342 31.7853 18.8342C28.2967 18.8342 25.8815 16.2653 25.8815 12.7216C25.8815 8.88805 28.3906 6.46408 31.7853 6.46408C33.8113 6.46408 35.5825 7.55751 36.723 8.90121L39.5541 6.52996C37.4073 3.94792 34.4688 2.85449 31.7853 2.85449C25.4119 2.85449 21.8428 7.2545 21.8428 12.7216C21.8428 19.045 26.445 22.4438 31.7853 22.4438V22.4306ZM42.5731 22.233H55.1187V18.8605H46.4508V3.07845H42.5731V22.233ZM71.032 22.233H75.0841L67.8252 3.07845H64.0817L56.8494 22.233H60.8883L62.2166 18.4126H69.7037L71.032 22.233ZM63.3301 15.1719L65.9332 7.64973H65.9602L68.5765 15.1719H63.3301ZM80.0755 22.233H83.9265V6.47727H89.3336V3.07845H74.695V6.47727H80.0755V22.233Z" fill="#00425F"/>
<path d="M13.7683 21.9558C12.1533 22.897 10.0188 23.1966 8.59675 23.1966C4.75582 23.1966 2.63965 20.881 2.63965 16.9103C2.63965 12.4957 5.738 8.16504 10.562 8.16504C13.2571 8.16504 15.3979 9.6946 15.3979 12.5935C15.3979 16.1361 12.0828 17.4244 6.41199 17.2613C6.44516 17.765 6.59793 18.251 6.85553 18.6722C7.41886 19.4335 8.36446 19.7855 9.54234 19.7855C10.9088 19.7991 12.2593 19.468 13.4866 18.8185L13.7683 21.9558ZM10.0819 11.2983C8.07456 11.2983 7.01373 12.991 6.797 14.0667C10.1386 14.0855 11.6274 13.7325 11.6274 12.4848C11.6274 11.8055 11.0174 11.2983 10.0819 11.2983Z" fill="#EE342B"/>
<path d="M15.3975 8.16482C16.2912 6.4034 17.4066 4.63513 18.5174 3.29802L20.5008 3.1543C19.6458 4.73317 18.9404 6.35297 18.3895 8.00228L15.3975 8.16482Z" fill="#EE342B"/>
<path fill-rule="evenodd" clip-rule="evenodd" d="M26.7258 31.6353L26.819 31.0963C26.819 31.0963 26.0729 30.8589 25.4658 31.2983V33.4571H26.1102V31.7032C26.3667 31.5012 26.722 31.6353 26.722 31.6353" fill="#00425F"/>
<path fill-rule="evenodd" clip-rule="evenodd" d="M21.1671 30.4815L21.8115 30.3623V31.0642H22.4485V31.6228H21.8115V32.4607C21.8055 32.5782 21.8302 32.6953 21.8833 32.8004C21.9309 32.8861 22.026 32.928 22.1696 32.928C22.2416 32.9279 22.3134 32.9211 22.3841 32.9075C22.4525 32.8945 22.5196 32.8755 22.5846 32.8507L22.6779 33.3767C22.5937 33.4115 22.507 33.4401 22.4186 33.4623C22.3035 33.4879 22.1858 33.4997 22.068 33.4977C21.9189 33.5029 21.7704 33.4776 21.6315 33.4233C21.5216 33.3793 21.4251 33.3074 21.3517 33.2147C21.2793 33.1192 21.2299 33.0084 21.2072 32.8907C21.1784 32.7527 21.1646 32.6119 21.1661 32.4709L21.1671 30.4815Z" fill="#00425F"/>
<path fill-rule="evenodd" clip-rule="evenodd" d="M27.7762 32.9729C27.8614 32.9783 27.9468 32.9659 28.027 32.9365C28.0518 32.9233 28.072 32.9028 28.085 32.8779C28.098 32.853 28.1031 32.8248 28.0998 32.7969C28.0982 32.7671 28.0887 32.7382 28.0724 32.7132C28.056 32.6881 28.0333 32.6679 28.0065 32.6545C27.9143 32.5994 27.8172 32.553 27.7165 32.5158C27.6158 32.4757 27.5244 32.4357 27.4367 32.3938C27.3596 32.3543 27.2892 32.3031 27.2278 32.2421C27.1689 32.1816 27.1232 32.1097 27.0935 32.0307C27.0591 31.9366 27.0429 31.8367 27.0459 31.7365C27.0419 31.6359 27.0612 31.5357 27.1025 31.4438C27.1437 31.3519 27.2058 31.2708 27.2837 31.2068C27.4721 31.0682 27.7029 30.9994 27.9366 31.0123C28.0703 31.0118 28.2037 31.0249 28.3348 31.0514C28.4377 31.0704 28.5388 31.0981 28.637 31.1342L28.5251 31.6602C28.4452 31.6313 28.3636 31.6073 28.2807 31.5885C28.1835 31.566 28.0839 31.555 27.9841 31.5559C27.7827 31.5559 27.681 31.6146 27.681 31.7328C27.6805 31.7574 27.6853 31.7819 27.695 31.8045C27.7061 31.8293 27.7238 31.8506 27.7463 31.8659C27.7797 31.8903 27.8153 31.9115 27.8526 31.9293C27.908 31.9577 27.965 31.9829 28.0233 32.0047C28.1439 32.0497 28.2608 32.1038 28.373 32.1666C28.4552 32.2118 28.529 32.2707 28.5913 32.3407C28.6441 32.3995 28.6827 32.4696 28.7041 32.5455C28.727 32.6308 28.738 32.7189 28.7368 32.8071C28.7426 32.9101 28.7225 33.0128 28.6784 33.106C28.6342 33.1992 28.5674 33.2798 28.484 33.3406C28.3152 33.4597 28.0765 33.5203 27.7678 33.5203C27.5983 33.524 27.429 33.5059 27.2642 33.4663C27.1687 33.4422 27.0752 33.4111 26.9844 33.3732L27.0926 32.8248C27.2017 32.8696 27.3143 32.9054 27.4292 32.9319C27.5416 32.9572 27.6563 32.9701 27.7715 32.9701" fill="#00425F"/>
<path fill-rule="evenodd" clip-rule="evenodd" d="M30.7271 32.0909C30.6693 32.3199 30.6071 32.5477 30.5406 32.7742C30.4753 33.0004 30.4063 33.2285 30.3354 33.4575H29.8337C29.7814 33.3334 29.7249 33.1826 29.6639 33.0051C29.6033 32.8301 29.5408 32.6392 29.4774 32.4316C29.414 32.224 29.3468 32.0071 29.2788 31.7753C29.2107 31.5435 29.1445 31.3098 29.0811 31.0762H29.7609C29.7833 31.1842 29.8085 31.3033 29.8365 31.4318L29.9232 31.8284C29.954 31.9634 29.9857 32.1002 30.0165 32.238C30.0472 32.3758 30.0836 32.507 30.1191 32.6337C30.1564 32.5005 30.1927 32.3655 30.2291 32.2268C30.2655 32.0881 30.3 31.9475 30.3326 31.8163C30.3653 31.685 30.3979 31.5528 30.4259 31.4271C30.4539 31.3015 30.4828 31.1842 30.5061 31.0762H30.9724C30.9966 31.1842 31.0218 31.3024 31.0507 31.4271C31.0796 31.5519 31.1095 31.6832 31.144 31.8163C31.1785 31.9494 31.2083 32.0872 31.2428 32.2268C31.2774 32.3665 31.3137 32.5005 31.3501 32.6337C31.3855 32.507 31.42 32.3748 31.4555 32.238C31.4909 32.1012 31.5226 31.9634 31.5534 31.8284L31.6401 31.4318C31.6681 31.3033 31.6933 31.1842 31.7157 31.0762H32.3862C32.3228 31.3117 32.2575 31.5416 32.1895 31.7753C32.1214 32.009 32.0552 32.2259 31.9889 32.4316C31.9227 32.6374 31.8612 32.8301 31.8024 33.0051C31.7437 33.1801 31.683 33.3309 31.6317 33.4575H31.13C31.0573 33.2285 30.9873 33.0004 30.9174 32.7742C30.8474 32.548 30.7859 32.3199 30.7308 32.0909" fill="#00425F"/>
<path d="M33.4882 31.0762H32.8447V33.4575H33.4882V31.0762Z" fill="#00425F"/>
<path fill-rule="evenodd" clip-rule="evenodd" d="M34.0001 30.4824L34.6446 30.3623V31.0773H35.2815V31.6358H34.6446V32.4737C34.6389 32.5911 34.6633 32.7081 34.7154 32.8135C34.763 32.8973 34.8591 32.9401 35.0027 32.9401C35.0747 32.9401 35.1465 32.9332 35.2172 32.9196C35.2861 32.9076 35.3536 32.8886 35.4186 32.8628L35.5119 33.3888C35.4276 33.4235 35.341 33.4521 35.2526 33.4745C35.1377 33.5008 35.0199 33.513 34.902 33.5108C34.7528 33.5155 34.6043 33.4899 34.4655 33.4354C34.3555 33.3921 34.2589 33.3205 34.1857 33.2278C34.1142 33.1317 34.0649 33.0211 34.0412 32.9038C34.0123 32.7654 33.9986 32.6243 34.0001 32.483V30.4824Z" fill="#00425F"/>
<path fill-rule="evenodd" clip-rule="evenodd" d="M35.7364 32.2679C35.7354 32.1022 35.7625 31.9376 35.8166 31.781C35.8664 31.6342 35.945 31.4987 36.0479 31.3825C36.1502 31.268 36.2753 31.176 36.4153 31.1126C36.5703 31.0443 36.7384 31.0106 36.9077 31.0139C37.0197 31.0132 37.1313 31.0248 37.2407 31.0483C37.3418 31.0695 37.4405 31.1007 37.5354 31.1414L37.4011 31.6804C37.336 31.6551 37.2693 31.6339 37.2015 31.6171C37.1224 31.5985 37.0413 31.5894 36.96 31.5901C36.8792 31.5842 36.7983 31.5981 36.7242 31.6305C36.65 31.663 36.585 31.713 36.5347 31.7763C36.4344 31.9194 36.3849 32.0917 36.3939 32.266C36.383 32.442 36.4295 32.6167 36.5263 32.7641C36.613 32.8814 36.7669 32.94 36.9861 32.94C37.0702 32.9394 37.1541 32.9319 37.237 32.9177C37.3217 32.9039 37.4045 32.8795 37.4832 32.8451L37.5764 33.398C37.4861 33.4353 37.3924 33.464 37.2966 33.4837C37.1739 33.5085 37.0489 33.5207 36.9236 33.52C36.7404 33.5241 36.5582 33.4908 36.3883 33.4223C36.2453 33.3633 36.1178 33.2725 36.0152 33.1569C35.9166 33.042 35.8444 32.907 35.8035 32.7613C35.7577 32.6002 35.735 32.4335 35.7364 32.266" fill="#00425F"/>
<path fill-rule="evenodd" clip-rule="evenodd" d="M37.9902 33.4576V30.4785L38.6337 30.3594V31.0827C38.6884 31.065 38.7442 31.0507 38.8007 31.0399C38.8655 31.0268 38.9314 31.02 38.9975 31.0194C39.1545 31.015 39.3108 31.0419 39.4572 31.0985C39.5732 31.1463 39.6745 31.2237 39.751 31.3229C39.8276 31.4247 39.8811 31.5419 39.9077 31.6664C39.9389 31.8124 39.9539 31.9613 39.9525 32.1105V33.4548H39.308V32.1943C39.3202 32.035 39.2929 31.8751 39.2287 31.7288C39.1961 31.6817 39.1513 31.6443 39.0991 31.6205C39.0469 31.5967 38.9892 31.5875 38.9322 31.5938C38.8777 31.5938 38.8234 31.5988 38.7699 31.6087C38.7195 31.6199 38.6766 31.6311 38.6337 31.6432V33.4539L37.9902 33.4576Z" fill="#00425F"/>
<path fill-rule="evenodd" clip-rule="evenodd" d="M18.5674 33.4572V31.2993C18.5674 31.2993 18.891 31.0293 19.5989 31.0293C20.2433 31.0293 20.5977 31.3663 20.5977 32.1083V33.4572H19.9542V32.1083C19.9542 31.6353 19.7276 31.6028 19.5354 31.6028C19.4201 31.6027 19.3075 31.6378 19.2128 31.7033V33.4572H18.5674Z" fill="#00425F"/>
<path fill-rule="evenodd" clip-rule="evenodd" d="M17.3545 33.4577V30.4815L17.9989 30.3623V33.4577H17.3545Z" fill="#00425F"/>
<path fill-rule="evenodd" clip-rule="evenodd" d="M23.9665 31.4937C23.5478 31.4937 23.5151 31.9647 23.5151 31.9647H24.417C24.417 31.9647 24.3852 31.4937 23.9665 31.4937ZM24.9607 32.4376H23.5151C23.5151 32.4376 23.5478 32.9431 24.1913 32.9431C24.4096 32.9381 24.6263 32.9043 24.8357 32.8426L24.9 33.3826C24.6528 33.4731 24.3912 33.5185 24.1278 33.5166C23.4825 33.5166 22.9033 33.1796 22.9033 32.2356C22.9033 31.4909 23.3538 31.0254 23.9982 31.0254C24.9644 31.0254 25.0297 32.0355 24.9644 32.4414" fill="#00425F"/>
<path fill-rule="evenodd" clip-rule="evenodd" d="M41.2654 35.2417C41.0015 35.1728 43.3648 32.2869 42.9712 31.1185C42.7744 30.5004 40.8057 30.5693 40.8057 30.3626C40.8057 30.1559 44.6135 29.6076 44.9726 30.1224C45.5322 30.8448 41.5928 35.3795 41.2654 35.2426" fill="#EE342B"/>
<path fill-rule="evenodd" clip-rule="evenodd" d="M45.859 28.5764C45.8511 28.7432 45.7944 28.904 45.6959 29.0388C45.5973 29.1737 45.4613 29.2768 45.3046 29.3352C45.1479 29.3936 44.9775 29.4048 44.8145 29.3675C44.6515 29.3301 44.503 29.2458 44.3876 29.125C44.2721 29.0042 44.1947 28.8523 44.165 28.688C44.1352 28.5237 44.1545 28.3543 44.2203 28.2008C44.2861 28.0473 44.3956 27.9165 44.5352 27.8245C44.6748 27.7326 44.8384 27.6836 45.0056 27.6836C45.1204 27.6863 45.2335 27.7115 45.3385 27.7578C45.4435 27.8041 45.5384 27.8706 45.6176 27.9535C45.6969 28.0364 45.759 28.1341 45.8004 28.241C45.8418 28.3478 45.8617 28.4618 45.859 28.5764Z" fill="#EE342B"/>
<path d="M46.6504 33.5012V30.9756H46.8425V32.1197H48.3058V30.9756H48.4979V33.5012H48.3058V32.278H46.8425V33.5012H46.6504Z" fill="#00425F"/>
<path d="M49.8287 33.3684C50.129 33.3684 50.3136 33.2753 50.4144 33.1729H50.4946V33.307C50.298 33.454 50.0563 33.528 49.811 33.5164C49.243 33.5164 48.9287 33.1515 48.9287 32.5669C48.9287 31.9822 49.2831 31.5996 49.7681 31.5996C50.2344 31.5996 50.5412 31.8668 50.5412 32.4803C50.5412 32.5166 50.5412 32.5594 50.5412 32.5669H49.1162C49.1162 33.0938 49.3596 33.3684 49.8287 33.3684ZM49.1162 32.43H50.3565C50.3463 31.9282 50.115 31.7374 49.7643 31.7374C49.4137 31.7374 49.16 31.9683 49.1162 32.43Z" fill="#00425F"/>
<path d="M52.0231 33.2475C51.9436 33.3387 51.8443 33.4109 51.7329 33.4584C51.6214 33.506 51.5007 33.5278 51.3796 33.5221C51.0289 33.5221 50.7725 33.3303 50.7725 32.9766C50.7725 32.5977 51.0867 32.4245 51.5279 32.4245C51.6947 32.4228 51.8611 32.4422 52.0231 32.4822V32.1433C52.0231 31.851 51.8366 31.7458 51.5568 31.7458C51.3483 31.7339 51.1419 31.7926 50.9711 31.9125H50.8956V31.7579C51.1004 31.6464 51.3309 31.5902 51.5642 31.595C51.9476 31.595 52.2003 31.7365 52.2003 32.1257V33.497H52.1499C52.0445 33.497 52.0194 33.4644 52.0194 33.3108L52.0231 33.2475ZM52.0231 33.0743V32.6088C51.8645 32.5714 51.7021 32.552 51.5391 32.5511C51.2061 32.5511 50.9571 32.6703 50.9571 32.9589C50.9571 33.2475 51.152 33.3769 51.4048 33.3769C51.525 33.3802 51.6442 33.3541 51.7519 33.3009C51.8597 33.2477 51.9528 33.1689 52.0231 33.0715V33.0743Z" fill="#00425F"/>
<path d="M52.7129 33.5012V30.9756H52.7782C52.8836 30.9756 52.8938 30.997 52.8938 31.1487V33.5012H52.7129Z" fill="#00425F"/>
<path d="M53.2011 31.6218H53.4501V31.0986H53.6311V31.6218H54.1337V31.7587H53.6311V33.0722C53.6311 33.2994 53.7364 33.3683 53.9565 33.3683H54.1738V33.494C54.0814 33.5093 53.9878 33.5168 53.8941 33.5163C53.6049 33.5163 53.4492 33.3934 53.4492 33.0937V31.7587H53.2002L53.2011 31.6218Z" fill="#00425F"/>
<path d="M54.6732 31.9205C54.9044 31.7227 55.1962 31.6094 55.5005 31.5993C55.7644 31.5993 55.9891 31.7082 55.9891 32.1011V33.4975H55.8082V32.1225C55.8082 31.8237 55.645 31.7501 55.4352 31.7501C55.1554 31.7501 54.8887 31.9056 54.676 32.0676V33.5003H54.4951V30.9756H54.5604C54.6611 30.9756 54.676 30.9933 54.676 31.1487L54.6732 31.9205Z" fill="#00425F"/>
<path d="M58.0089 33.5012V31.1338H57.1816V30.9756H59.0292V31.1338H58.2047V33.5012H58.0089Z" fill="#00425F"/>
<path d="M59.7848 33.3684C60.0841 33.3684 60.2688 33.2753 60.3704 33.1729H60.4497V33.307C60.2533 33.4543 60.0115 33.5284 59.7661 33.5164C59.1991 33.5164 58.8848 33.1515 58.8848 32.5669C58.8848 31.9822 59.2392 31.5996 59.7241 31.5996C60.1904 31.5996 60.4973 31.8668 60.4973 32.4803C60.4973 32.5166 60.4973 32.5594 60.4973 32.5669H59.0685C59.0685 33.0938 59.3147 33.3684 59.7848 33.3684ZM59.0722 32.43H60.3126C60.3014 31.9282 60.0701 31.7374 59.7195 31.7374C59.3688 31.7374 59.1161 31.9683 59.0722 32.43Z" fill="#00425F"/>
<path d="M60.7246 32.5562C60.7246 31.9604 61.093 31.5992 61.6171 31.5992C61.829 31.5867 62.0382 31.6508 62.2065 31.7798V31.9241H62.1133C62.0472 31.8611 61.9687 31.8125 61.8828 31.7814C61.7969 31.7503 61.7055 31.7374 61.6143 31.7435C61.1947 31.7435 60.9093 32.0433 60.9093 32.5562C60.9093 33.0692 61.1732 33.3717 61.6143 33.3717C61.7152 33.3776 61.8162 33.3613 61.91 33.3238C62.0038 33.2863 62.0882 33.2286 62.1571 33.1548H62.2401V33.2917C62.0666 33.4463 61.8392 33.5269 61.6069 33.516C61.0529 33.516 60.7246 33.1474 60.7246 32.5562Z" fill="#00425F"/>
<path d="M62.7816 31.9205C63.0132 31.7227 63.3052 31.6094 63.6098 31.5993C63.8737 31.5993 64.0976 31.7082 64.0976 32.1011V33.4975H63.9166V32.1225C63.9166 31.8237 63.7544 31.7501 63.5436 31.7501C63.2638 31.7501 62.998 31.9056 62.7844 32.0676V33.5003H62.6035V30.9756H62.6688C62.7705 30.9756 62.7844 30.9933 62.7844 31.1487L62.7816 31.9205Z" fill="#00425F"/>
<path d="M65.3838 32.2317C65.3838 31.4013 65.8939 30.9609 66.4973 30.9609C66.8984 30.9609 67.0793 31.0624 67.2677 31.2142V31.3687H67.1744C67.0336 31.2281 66.8564 31.1164 66.5057 31.1164C65.9816 31.1164 65.5796 31.4953 65.5796 32.2242C65.5796 32.969 65.9303 33.3609 66.4768 33.3609C66.6155 33.3676 66.7539 33.3442 66.8827 33.2925C67.0115 33.2407 67.1275 33.1618 67.2229 33.0612H67.3059V33.2055C67.1941 33.311 67.0622 33.3929 66.918 33.4463C66.7738 33.4998 66.6202 33.5236 66.4666 33.5164C65.8324 33.5164 65.3838 33.0621 65.3838 32.2317Z" fill="#00425F"/>
<path d="M67.5576 32.5594C67.5576 31.9683 67.912 31.5996 68.4324 31.5996C68.9528 31.5996 69.311 31.972 69.311 32.5594C69.311 33.1468 68.9603 33.5164 68.4324 33.5164C67.9046 33.5164 67.5576 33.1552 67.5576 32.5594ZM69.1263 32.5594C69.1263 32.0474 68.8624 31.7411 68.4324 31.7411C68.0025 31.7411 67.7423 32.0474 67.7423 32.5594C67.7423 33.0714 68.0062 33.3749 68.4324 33.3749C68.8586 33.3749 69.1263 33.0761 69.1263 32.5594Z" fill="#00425F"/>
<path d="M69.8714 31.9068C70.0796 31.722 70.3447 31.6136 70.623 31.5996C70.8254 31.5996 71.0175 31.6862 71.0716 31.9105C71.2799 31.7205 71.5489 31.6104 71.8308 31.5996C72.0872 31.5996 72.2971 31.7262 72.2971 32.0651V33.5043H72.1162V32.1079C72.1162 31.8286 71.9828 31.7504 71.7655 31.7504C71.4978 31.7504 71.2815 31.8984 71.0856 32.0539V33.5006H70.9056V32.1042C70.9056 31.8249 70.7601 31.7467 70.5578 31.7467C70.2836 31.7467 70.0663 31.891 69.8714 32.0539V33.4969H69.6904V31.622H69.7734C69.8527 31.622 69.8667 31.6434 69.8667 31.8081L69.8714 31.9068Z" fill="#00425F"/>
<path d="M72.979 31.9571C73.0646 31.8484 73.1732 31.7601 73.297 31.6982C73.4209 31.6364 73.5569 31.6028 73.6953 31.5996C74.0534 31.5996 74.4181 31.8128 74.4181 32.5306C74.4181 33.2753 73.9984 33.5053 73.6086 33.5053C73.3779 33.5177 73.1517 33.4387 72.979 33.2856V34.0862H72.8037V31.622H72.8867C72.966 31.622 72.98 31.6434 72.98 31.8081L72.979 31.9571ZM72.979 32.134V33.1124C73.0535 33.1959 73.1458 33.2616 73.2491 33.3046C73.3524 33.3476 73.4641 33.3669 73.5759 33.361C73.8865 33.361 74.2343 33.199 74.2343 32.5492C74.2343 31.8994 73.9303 31.7476 73.6664 31.7476C73.3633 31.7476 73.1422 31.9394 72.979 32.1312V32.134Z" fill="#00425F"/>
<path d="M75.8981 33.2474C75.8183 33.3387 75.7189 33.4108 75.6073 33.4583C75.4957 33.5059 75.3748 33.5277 75.2536 33.5221C74.9039 33.5221 74.6465 33.3303 74.6465 32.9765C74.6465 32.5976 74.9617 32.4245 75.4019 32.4245C75.5691 32.4229 75.7357 32.4423 75.8981 32.4822V32.1433C75.8981 31.851 75.7115 31.7458 75.4317 31.7458C75.2233 31.7339 75.0169 31.7926 74.8461 31.9125H74.7705V31.7579C74.9754 31.6465 75.2059 31.5903 75.4392 31.595C75.8225 31.595 76.0753 31.7365 76.0753 32.1256V33.4969H76.0249C75.9204 33.4969 75.8953 33.4644 75.8953 33.3108L75.8981 33.2474ZM75.8981 33.0743V32.6088C75.7391 32.5714 75.5764 32.5521 75.4131 32.5511C75.0801 32.5511 74.8311 32.6703 74.8311 32.9589C74.8311 33.2474 75.0261 33.3769 75.2797 33.3769C75.3999 33.3801 75.5191 33.354 75.6269 33.3008C75.7346 33.2475 75.8277 33.1688 75.8981 33.0715V33.0743Z" fill="#00425F"/>
<path d="M76.765 31.9208C76.9966 31.723 77.2886 31.6097 77.5932 31.5996C77.8562 31.5996 78.081 31.7085 78.081 32.1014V33.4978H77.9001V32.1228C77.9001 31.824 77.7378 31.7504 77.527 31.7504C77.2472 31.7504 76.9814 31.9059 76.7678 32.0679V33.5006H76.5869V31.622H76.6699C76.7492 31.622 76.7678 31.6434 76.7678 31.8081L76.765 31.9208Z" fill="#00425F"/>
<path d="M78.8433 34.0284L79.1286 33.3767L78.377 31.6805V31.6265H78.543L79.2154 33.1552L79.8514 31.6182H80.0146V31.6722L79.0018 34.0861H78.8433V34.0284Z" fill="#00425F"/>
<path d="M13.3864 33.2474C13.3068 33.3387 13.2076 33.4108 13.0961 33.4583C12.9847 33.5059 12.8639 33.5277 12.7429 33.5221C12.3922 33.5221 12.1357 33.3303 12.1357 32.9765C12.1357 32.5976 12.45 32.4245 12.8912 32.4245C13.058 32.4229 13.2244 32.4423 13.3864 32.4822V32.1433C13.3864 31.851 13.1998 31.7458 12.9201 31.7458C12.7116 31.7339 12.5052 31.7926 12.3344 31.9125H12.2588V31.7579C12.4637 31.6464 12.6942 31.5902 12.9275 31.595C13.3108 31.595 13.5636 31.7365 13.5636 32.1257V33.4969H13.5132C13.4078 33.4969 13.3826 33.4644 13.3826 33.3108L13.3864 33.2474ZM13.3864 33.0743V32.6088C13.2277 32.5714 13.0654 32.552 12.9023 32.5511C12.5694 32.5511 12.3204 32.6703 12.3204 32.9589C12.3204 33.2474 12.5153 33.3768 12.7681 33.3768C12.8883 33.3802 13.0074 33.3541 13.1152 33.3009C13.223 33.2476 13.3161 33.1689 13.3864 33.0715V33.0743Z" fill="#00425F"/>
<path d="M14.2543 31.9208C14.4855 31.723 14.7772 31.6097 15.0815 31.5996C15.3455 31.5996 15.5702 31.7085 15.5702 32.1014V33.4978H15.3893V32.1228C15.3893 31.824 15.2261 31.7504 15.0162 31.7504C14.7365 31.7504 14.4697 31.9059 14.2571 32.0679V33.5006H14.0762V31.622H14.1592C14.2384 31.622 14.2571 31.6434 14.2571 31.8081L14.2543 31.9208Z" fill="#00425F"/>
</svg>
