<svg width="313" height="118" viewBox="0 0 313 118" fill="none" xmlns="http://www.w3.org/2000/svg">
<path d="M108.005 75.64C119.755 75.64 128.761 70.196 134.476 63.0136L124.829 54.7331C120.897 59.6282 114.908 63.1507 108.005 63.1507C96.1178 63.1507 87.8884 54.2299 87.8884 41.9236C87.8884 28.6109 96.4378 20.1932 108.005 20.1932C114.908 20.1932 120.943 23.9903 124.829 28.6566L134.476 20.422C127.161 11.4553 117.149 7.6582 108.005 7.6582C86.2882 7.6582 74.127 22.9381 74.127 41.9236C74.127 63.8827 89.8086 75.6857 108.005 75.6857V75.64ZM144.763 74.9538H187.51V63.2423H157.976V8.43592H144.763V74.9538ZM241.733 74.9538H255.54L230.806 8.43592H218.051L193.407 74.9538H207.17L211.696 61.6868H237.207L241.733 74.9538ZM215.49 50.4327L224.36 24.3106H224.451L233.366 50.4327H215.49ZM272.547 74.9538H285.669V20.239H304.093V8.43592H254.214V20.239H272.547V74.9538Z" fill="white"/>
<path d="M46.6147 73.9905C41.1117 77.2593 33.8388 78.2996 28.9934 78.2996C15.9059 78.2996 8.69531 70.2583 8.69531 56.4692C8.69531 41.1385 19.2525 26.0996 35.6898 26.0996C44.8728 26.0996 52.1675 31.4113 52.1675 41.4784C52.1675 53.7808 40.8718 58.2546 21.5491 57.6881C21.6621 59.4373 22.1827 61.1249 23.0604 62.5878C24.9799 65.2316 28.2019 66.4539 32.2154 66.4539C36.8712 66.5011 41.4729 65.3513 45.655 63.0959L46.6147 73.9905ZM34.0538 36.9805C27.2141 36.9805 23.5995 42.8587 22.8609 46.5944C34.247 46.6596 39.32 45.4338 39.32 41.1007C39.32 38.7419 37.2416 36.9805 34.0538 36.9805Z" fill="#EE342B"/>
<path d="M52.166 26.1002C55.2114 19.9833 59.0121 13.8427 62.7968 9.1993L69.5549 8.7002C66.6418 14.1831 64.2382 19.8082 62.3612 25.5357L52.166 26.1002Z" fill="#EE342B"/>
<path fill-rule="evenodd" clip-rule="evenodd" d="M90.6491 105.449L90.9664 103.614C90.9664 103.614 88.4274 102.807 86.3613 104.302V111.649H88.5544V105.68C89.4272 104.993 90.6364 105.449 90.6364 105.449" fill="white"/>
<path fill-rule="evenodd" clip-rule="evenodd" d="M71.734 101.52L73.9271 101.114V103.503H76.0948V105.404H73.9271V108.255C73.9066 108.655 73.9908 109.054 74.1715 109.412C74.3333 109.703 74.6571 109.846 75.1458 109.846C75.3908 109.845 75.6352 109.822 75.8758 109.776C76.1085 109.732 76.3369 109.667 76.5582 109.583L76.8755 111.373C76.5889 111.491 76.294 111.588 75.9932 111.664C75.6016 111.751 75.201 111.791 74.7999 111.784C74.2926 111.802 73.7871 111.716 73.3146 111.531C72.9406 111.381 72.6123 111.137 72.3624 110.821C72.1161 110.496 71.9478 110.119 71.8705 109.719C71.7725 109.249 71.7256 108.77 71.7309 108.29L71.734 101.52Z" fill="white"/>
<path fill-rule="evenodd" clip-rule="evenodd" d="M94.2258 110.001C94.5159 110.02 94.8066 109.978 95.0795 109.878C95.1639 109.833 95.2326 109.763 95.2768 109.678C95.3209 109.594 95.3385 109.498 95.3271 109.403C95.3217 109.301 95.2895 109.203 95.2338 109.118C95.178 109.033 95.1007 108.964 95.0097 108.918C94.696 108.731 94.3655 108.573 94.0227 108.446C93.6799 108.31 93.3689 108.173 93.0705 108.031C92.8083 107.896 92.5685 107.722 92.3596 107.514C92.1592 107.309 92.0036 107.064 91.9026 106.795C91.7854 106.475 91.7305 106.135 91.7407 105.794C91.7269 105.452 91.7928 105.111 91.9332 104.798C92.0736 104.485 92.2848 104.209 92.55 103.992C93.191 103.52 93.9766 103.286 94.7717 103.329C95.2268 103.328 95.6808 103.372 96.1269 103.462C96.477 103.527 96.821 103.622 97.1552 103.744L96.7743 105.534C96.5025 105.436 96.2248 105.354 95.9428 105.29C95.612 105.214 95.2732 105.177 94.9335 105.18C94.248 105.18 93.9021 105.379 93.9021 105.782C93.9004 105.865 93.9166 105.948 93.9497 106.025C93.9872 106.11 94.0477 106.182 94.1242 106.235C94.2378 106.317 94.359 106.39 94.486 106.45C94.6744 106.547 94.8684 106.633 95.0668 106.707C95.4771 106.86 95.875 107.044 96.257 107.258C96.5366 107.412 96.7878 107.612 96.9997 107.85C97.1793 108.05 97.3107 108.289 97.3837 108.547C97.4617 108.838 97.4991 109.137 97.4948 109.438C97.5147 109.788 97.4464 110.137 97.2961 110.454C97.1459 110.772 96.9185 111.046 96.6347 111.253C96.0602 111.658 95.2477 111.864 94.1972 111.864C93.6204 111.877 93.0443 111.815 92.4834 111.681C92.1586 111.599 91.8403 111.493 91.5312 111.364L91.8994 109.498C92.2708 109.65 92.654 109.772 93.0451 109.862C93.4274 109.948 93.818 109.992 94.2099 109.992" fill="white"/>
<path fill-rule="evenodd" clip-rule="evenodd" d="M104.268 106.998C104.071 107.778 103.859 108.553 103.633 109.324C103.411 110.093 103.176 110.87 102.935 111.649H101.227C101.05 111.227 100.857 110.713 100.65 110.109C100.443 109.514 100.231 108.864 100.015 108.158C99.7991 107.451 99.5705 106.713 99.3389 105.924C99.1072 105.135 98.8818 104.34 98.666 103.545H100.98C101.056 103.912 101.142 104.318 101.237 104.755L101.532 106.105C101.637 106.564 101.745 107.03 101.849 107.499C101.954 107.968 102.078 108.414 102.198 108.845C102.325 108.392 102.449 107.933 102.573 107.461C102.697 106.989 102.814 106.51 102.925 106.064C103.036 105.617 103.147 105.167 103.243 104.739C103.338 104.312 103.436 103.912 103.516 103.545H105.102C105.185 103.912 105.271 104.315 105.369 104.739C105.467 105.164 105.569 105.611 105.686 106.064C105.804 106.517 105.905 106.986 106.023 107.461C106.14 107.936 106.264 108.392 106.388 108.845C106.508 108.414 106.626 107.964 106.746 107.499C106.867 107.033 106.975 106.564 107.08 106.105L107.375 104.755C107.47 104.318 107.556 103.912 107.632 103.545H109.914C109.698 104.346 109.476 105.129 109.244 105.924C109.013 106.719 108.787 107.458 108.562 108.158C108.336 108.858 108.127 109.514 107.927 110.109C107.727 110.705 107.521 111.218 107.346 111.649H105.639C105.391 110.87 105.153 110.093 104.915 109.324C104.677 108.554 104.468 107.778 104.28 106.998" fill="white"/>
<path d="M113.666 103.545H111.477V111.649H113.666V103.545Z" fill="white"/>
<path fill-rule="evenodd" clip-rule="evenodd" d="M115.405 101.523L117.598 101.114V103.547H119.765V105.448H117.598V108.3C117.579 108.699 117.662 109.097 117.839 109.456C118.001 109.741 118.328 109.887 118.817 109.887C119.062 109.887 119.306 109.863 119.546 109.817C119.781 109.776 120.011 109.711 120.232 109.624L120.549 111.414C120.263 111.532 119.968 111.629 119.667 111.705C119.276 111.795 118.875 111.836 118.474 111.829C117.966 111.845 117.461 111.758 116.988 111.572C116.614 111.425 116.285 111.181 116.036 110.866C115.793 110.539 115.625 110.162 115.544 109.763C115.446 109.292 115.399 108.812 115.405 108.331V101.523Z" fill="white"/>
<path fill-rule="evenodd" clip-rule="evenodd" d="M121.315 107.6C121.311 107.036 121.404 106.476 121.588 105.943C121.757 105.444 122.025 104.983 122.375 104.587C122.723 104.198 123.149 103.885 123.625 103.669C124.153 103.436 124.724 103.322 125.301 103.333C125.682 103.33 126.062 103.37 126.434 103.45C126.778 103.522 127.114 103.628 127.437 103.767L126.98 105.601C126.758 105.515 126.531 105.443 126.301 105.386C126.031 105.322 125.755 105.291 125.479 105.294C125.204 105.274 124.928 105.321 124.676 105.431C124.424 105.542 124.203 105.712 124.031 105.927C123.69 106.414 123.522 107.001 123.552 107.594C123.515 108.193 123.673 108.787 124.003 109.289C124.298 109.688 124.822 109.888 125.567 109.888C125.854 109.886 126.139 109.86 126.421 109.812C126.71 109.765 126.991 109.682 127.259 109.564L127.576 111.446C127.269 111.573 126.95 111.671 126.624 111.738C126.207 111.822 125.781 111.864 125.355 111.861C124.731 111.875 124.111 111.762 123.533 111.529C123.047 111.328 122.613 111.019 122.264 110.626C121.928 110.235 121.682 109.775 121.543 109.279C121.387 108.731 121.31 108.164 121.315 107.594" fill="white"/>
<path fill-rule="evenodd" clip-rule="evenodd" d="M128.986 111.649V101.511L131.176 101.105V103.567C131.362 103.507 131.552 103.458 131.744 103.421C131.965 103.377 132.189 103.354 132.414 103.352C132.948 103.336 133.48 103.428 133.979 103.621C134.373 103.784 134.718 104.047 134.978 104.384C135.239 104.731 135.421 105.13 135.512 105.554C135.618 106.05 135.669 106.557 135.664 107.065V111.639H133.471V107.35C133.512 106.808 133.42 106.264 133.201 105.766C133.09 105.605 132.938 105.478 132.76 105.397C132.582 105.316 132.386 105.285 132.192 105.306C132.007 105.306 131.822 105.323 131.64 105.357C131.468 105.395 131.322 105.433 131.176 105.474V111.636L128.986 111.649Z" fill="white"/>
<path fill-rule="evenodd" clip-rule="evenodd" d="M62.8887 111.649V104.305C62.8887 104.305 63.99 103.387 66.3989 103.387C68.592 103.387 69.798 104.534 69.798 107.059V111.649H67.6081V107.059C67.6081 105.449 66.8368 105.338 66.183 105.338C65.7906 105.338 65.4075 105.457 65.0849 105.68V111.649H62.8887Z" fill="white"/>
<path fill-rule="evenodd" clip-rule="evenodd" d="M58.7598 111.648V101.52L60.9528 101.114V111.648H58.7598Z" fill="white"/>
<path fill-rule="evenodd" clip-rule="evenodd" d="M81.2626 104.968C79.8376 104.968 79.7265 106.571 79.7265 106.571H82.7956C82.7956 106.571 82.6877 104.968 81.2626 104.968ZM84.6459 108.18H79.7265C79.7265 108.18 79.8376 109.9 82.0275 109.9C82.7705 109.883 83.5079 109.768 84.2206 109.558L84.4396 111.396C83.5981 111.704 82.708 111.858 81.8117 111.852C79.6154 111.852 77.6445 110.705 77.6445 107.493C77.6445 104.958 79.1775 103.374 81.3705 103.374C84.6586 103.374 84.8807 106.811 84.6586 108.193" fill="white"/>
<path fill-rule="evenodd" clip-rule="evenodd" d="M140.133 117.722C139.235 117.487 147.277 107.666 145.938 103.69C145.268 101.587 138.568 101.821 138.568 101.118C138.568 100.414 151.527 98.5484 152.749 100.3C154.653 102.759 141.247 118.191 140.133 117.725" fill="#EE342B"/>
<path fill-rule="evenodd" clip-rule="evenodd" d="M155.762 95.0382C155.736 95.6058 155.543 96.153 155.207 96.612C154.872 97.0711 154.409 97.4217 153.876 97.6206C153.342 97.8194 152.763 97.8576 152.208 97.7304C151.653 97.6033 151.148 97.3164 150.755 96.9053C150.362 96.4942 150.099 95.9771 149.997 95.418C149.896 94.8589 149.962 94.2824 150.186 93.7601C150.41 93.2378 150.782 92.7925 151.257 92.4797C151.733 92.1668 152.289 92 152.858 92C153.249 92.009 153.634 92.0948 153.991 92.2524C154.349 92.41 154.671 92.6364 154.941 92.9185C155.211 93.2007 155.422 93.5331 155.563 93.8968C155.704 94.2605 155.772 94.6484 155.762 95.0382Z" fill="#EE342B"/>
<path d="M158.459 111.797V103.202H159.113V107.096H164.092V103.202H164.746V111.797H164.092V107.634H159.113V111.797H158.459Z" fill="white"/>
<path d="M169.272 111.345C170.294 111.345 170.922 111.028 171.265 110.679H171.538V111.136C170.869 111.636 170.046 111.888 169.211 111.848C167.279 111.848 166.209 110.606 166.209 108.617C166.209 106.627 167.415 105.325 169.065 105.325C170.652 105.325 171.696 106.234 171.696 108.322C171.696 108.446 171.696 108.592 171.696 108.617H166.847C166.847 110.41 167.675 111.345 169.272 111.345ZM166.847 108.151H171.068C171.033 106.444 170.246 105.794 169.053 105.794C167.859 105.794 166.996 106.58 166.847 108.151Z" fill="white"/>
<path d="M176.738 110.936C176.468 111.247 176.13 111.492 175.751 111.654C175.372 111.816 174.961 111.89 174.549 111.871C173.355 111.871 172.482 111.218 172.482 110.014C172.482 108.725 173.552 108.135 175.053 108.135C175.621 108.13 176.187 108.196 176.738 108.332V107.179C176.738 106.184 176.104 105.826 175.152 105.826C174.442 105.785 173.74 105.985 173.158 106.393H172.901V105.867C173.598 105.487 174.383 105.296 175.177 105.312C176.481 105.312 177.341 105.794 177.341 107.118V111.785H177.17C176.811 111.785 176.726 111.674 176.726 111.151L176.738 110.936ZM176.738 110.347V108.763C176.199 108.635 175.646 108.569 175.091 108.566C173.958 108.566 173.111 108.972 173.111 109.954C173.111 110.936 173.774 111.376 174.634 111.376C175.043 111.388 175.449 111.299 175.816 111.118C176.183 110.937 176.499 110.669 176.738 110.337V110.347Z" fill="white"/>
<path d="M179.088 111.797V103.202H179.31C179.669 103.202 179.704 103.275 179.704 103.791V111.797H179.088Z" fill="white"/>
<path d="M180.751 105.402H181.599V103.621H182.214V105.402H183.925V105.867H182.214V110.337C182.214 111.111 182.573 111.345 183.322 111.345H184.061V111.773C183.747 111.825 183.428 111.85 183.109 111.849C182.125 111.849 181.595 111.431 181.595 110.41V105.867H180.748L180.751 105.402Z" fill="white"/>
<path d="M185.759 106.418C186.545 105.745 187.538 105.359 188.574 105.325C189.472 105.325 190.237 105.695 190.237 107.032V111.785H189.621V107.105C189.621 106.088 189.066 105.838 188.351 105.838C187.399 105.838 186.492 106.367 185.768 106.918V111.794H185.152V103.202H185.375C185.717 103.202 185.768 103.262 185.768 103.791L185.759 106.418Z" fill="white"/>
<path d="M197.112 111.797V103.741H194.297V103.202H200.584V103.741H197.779V111.797H197.112Z" fill="white"/>
<path d="M203.155 111.345C204.173 111.345 204.802 111.028 205.148 110.679H205.417V111.136C204.749 111.637 203.926 111.889 203.091 111.848C201.161 111.848 200.092 110.606 200.092 108.617C200.092 106.627 201.298 105.325 202.948 105.325C204.535 105.325 205.579 106.234 205.579 108.322C205.579 108.446 205.579 108.592 205.579 108.617H200.717C200.717 110.41 201.555 111.345 203.155 111.345ZM200.73 108.151H204.951C204.913 106.444 204.126 105.794 202.932 105.794C201.739 105.794 200.879 106.58 200.73 108.151Z" fill="white"/>
<path d="M206.354 108.582C206.354 106.555 207.607 105.326 209.391 105.326C210.112 105.283 210.824 105.501 211.397 105.94V106.431H211.079C210.854 106.217 210.587 106.051 210.295 105.946C210.003 105.84 209.692 105.796 209.381 105.817C207.953 105.817 206.982 106.837 206.982 108.582C206.982 110.328 207.88 111.358 209.381 111.358C209.725 111.378 210.068 111.322 210.387 111.194C210.707 111.067 210.994 110.871 211.228 110.62H211.511V111.085C210.92 111.611 210.147 111.886 209.356 111.849C207.471 111.849 206.354 110.594 206.354 108.582Z" fill="white"/>
<path d="M213.352 106.418C214.14 105.745 215.134 105.359 216.171 105.325C217.069 105.325 217.83 105.695 217.83 107.032V111.785H217.215V107.105C217.215 106.088 216.663 105.838 215.945 105.838C214.993 105.838 214.089 106.367 213.362 106.918V111.794H212.746V103.202H212.968C213.314 103.202 213.362 103.262 213.362 103.791L213.352 106.418Z" fill="white"/>
<path d="M222.209 107.476C222.209 104.65 223.945 103.151 225.998 103.151C227.363 103.151 227.979 103.497 228.62 104.013V104.539H228.303C227.823 104.061 227.22 103.68 226.027 103.68C224.243 103.68 222.875 104.97 222.875 107.451C222.875 109.985 224.069 111.319 225.929 111.319C226.4 111.341 226.872 111.262 227.31 111.086C227.748 110.91 228.143 110.641 228.468 110.299H228.75V110.79C228.37 111.149 227.921 111.428 227.43 111.609C226.939 111.791 226.417 111.872 225.894 111.848C223.736 111.848 222.209 110.302 222.209 107.476Z" fill="white"/>
<path d="M229.605 108.592C229.605 106.58 230.812 105.325 232.583 105.325C234.354 105.325 235.572 106.592 235.572 108.592C235.572 110.591 234.379 111.848 232.583 111.848C230.786 111.848 229.605 110.619 229.605 108.592ZM234.944 108.592C234.944 106.849 234.046 105.807 232.583 105.807C231.119 105.807 230.234 106.849 230.234 108.592C230.234 110.334 231.132 111.367 232.583 111.367C234.033 111.367 234.944 110.35 234.944 108.592Z" fill="white"/>
<path d="M237.479 106.371C238.188 105.742 239.09 105.373 240.037 105.325C240.726 105.325 241.38 105.62 241.564 106.383C242.272 105.737 243.188 105.362 244.147 105.325C245.02 105.325 245.734 105.756 245.734 106.909V111.807H245.118V107.055C245.118 106.105 244.664 105.838 243.925 105.838C243.014 105.838 242.278 106.342 241.611 106.871V111.794H240.999V107.042C240.999 106.092 240.504 105.826 239.815 105.826C238.882 105.826 238.142 106.317 237.479 106.871V111.782H236.863V105.401H237.146C237.416 105.401 237.463 105.474 237.463 106.035L237.479 106.371Z" fill="white"/>
<path d="M248.058 106.542C248.349 106.172 248.718 105.871 249.14 105.661C249.561 105.451 250.024 105.336 250.495 105.325C251.714 105.325 252.955 106.051 252.955 108.493C252.955 111.028 251.527 111.81 250.2 111.81C249.415 111.853 248.645 111.584 248.058 111.063V113.787H247.461V105.401H247.743C248.013 105.401 248.061 105.474 248.061 106.035L248.058 106.542ZM248.058 107.144V110.473C248.311 110.757 248.625 110.981 248.977 111.127C249.328 111.274 249.708 111.339 250.089 111.319C251.146 111.319 252.33 110.768 252.33 108.557C252.33 106.345 251.295 105.829 250.397 105.829C249.365 105.829 248.613 106.482 248.058 107.134V107.144Z" fill="white"/>
<path d="M257.988 110.936C257.716 111.246 257.378 111.492 256.998 111.654C256.619 111.815 256.207 111.89 255.795 111.87C254.604 111.87 253.729 111.218 253.729 110.014C253.729 108.725 254.801 108.135 256.299 108.135C256.868 108.13 257.435 108.196 257.988 108.332V107.178C257.988 106.184 257.353 105.826 256.401 105.826C255.691 105.785 254.989 105.985 254.408 106.393H254.151V105.867C254.848 105.488 255.632 105.296 256.426 105.312C257.731 105.312 258.591 105.794 258.591 107.118V111.785H258.419C258.064 111.785 257.978 111.674 257.978 111.151L257.988 110.936ZM257.988 110.347V108.763C257.447 108.635 256.893 108.57 256.337 108.566C255.204 108.566 254.357 108.972 254.357 109.954C254.357 110.936 255.02 111.376 255.884 111.376C256.293 111.387 256.698 111.298 257.065 111.117C257.432 110.936 257.748 110.668 257.988 110.337V110.347Z" fill="white"/>
<path d="M260.94 106.418C261.728 105.745 262.722 105.36 263.759 105.325C264.654 105.325 265.418 105.696 265.418 107.033V111.785H264.803V107.106C264.803 106.089 264.251 105.838 263.533 105.838C262.581 105.838 261.677 106.368 260.95 106.919V111.795H260.334V105.401H260.616C260.886 105.401 260.95 105.474 260.95 106.035L260.94 106.418Z" fill="white"/>
<path d="M268.015 113.591L268.986 111.373L266.428 105.601V105.417H266.993L269.281 110.619L271.445 105.389H272.001V105.572L268.554 113.787H268.015V113.591Z" fill="white"/>
<path d="M45.256 110.936C44.9852 111.246 44.6475 111.492 44.2683 111.654C43.8891 111.815 43.4781 111.89 43.0661 111.87C41.8728 111.87 41 111.218 41 110.014C41 108.725 42.0696 108.135 43.5707 108.135C44.1385 108.13 44.7047 108.196 45.256 108.332V107.179C45.256 106.184 44.6213 105.826 43.6691 105.826C42.9597 105.785 42.2573 105.985 41.676 106.393H41.4189V105.867C42.1161 105.487 42.9005 105.296 43.6945 105.312C44.9989 105.312 45.859 105.794 45.859 107.118V111.785H45.6876C45.329 111.785 45.2433 111.674 45.2433 111.151L45.256 110.936ZM45.256 110.347V108.763C44.7161 108.635 44.1636 108.569 43.6088 108.566C42.4758 108.566 41.6284 108.972 41.6284 109.954C41.6284 110.936 42.2917 111.376 43.1518 111.376C43.5609 111.388 43.9665 111.299 44.3333 111.118C44.7001 110.937 45.0169 110.669 45.256 110.337V110.347Z" fill="white"/>
<path d="M48.2117 106.418C48.9983 105.745 49.9912 105.36 51.0268 105.325C51.925 105.325 52.6899 105.696 52.6899 107.033V111.785H52.0741V107.106C52.0741 106.089 51.5187 105.838 50.8046 105.838C49.8525 105.838 48.9448 106.368 48.2212 106.919V111.795H47.6055V105.401H47.8879C48.1577 105.401 48.2212 105.474 48.2212 106.035L48.2117 106.418Z" fill="white"/>
</svg>
