<svg width="315" height="315" viewBox="0 0 315 315" fill="none" xmlns="http://www.w3.org/2000/svg">
<path d="M280.215 119.049C286.064 137.716 287.578 157.471 284.64 176.811C281.703 196.151 274.392 214.566 263.264 230.654C252.136 246.743 237.484 260.08 220.424 269.652C203.364 279.224 184.345 284.777 164.814 285.89C145.284 287.003 125.758 283.645 107.721 276.073C89.6839 268.501 73.6123 256.913 60.7291 242.193C47.846 227.473 38.4908 210.007 33.3758 191.126C28.2608 172.244 27.5207 152.445 31.2119 133.235L72.1858 141.107C69.6922 154.085 70.1922 167.461 73.6477 180.216C77.1031 192.971 83.423 204.77 92.1262 214.714C100.829 224.659 111.687 232.487 123.872 237.602C136.056 242.718 149.248 244.986 162.441 244.234C175.635 243.482 188.483 239.731 200.008 233.265C211.533 226.798 221.431 217.788 228.949 206.92C236.466 196.051 241.405 183.611 243.39 170.546C245.374 157.48 244.352 144.135 240.4 131.524L280.215 119.049Z" fill="#00425F"/>
<path d="M175.862 30.2194C199.626 33.6477 221.956 43.6607 240.324 59.1249C258.692 74.589 272.363 94.8865 279.791 117.719L239.993 130.665C234.983 115.263 225.76 101.571 213.37 91.1396C200.98 80.7081 185.917 73.9537 169.886 71.6411L175.862 30.2194Z" fill="#6CC5D8"/>
<path d="M31.5463 131.555C38.0751 99.8597 56.3134 71.7913 82.6226 52.9492C108.932 34.107 141.377 25.8764 173.487 29.8993L168.341 70.9748C146.567 68.2469 124.566 73.828 106.726 86.6048C88.886 99.3815 76.5188 118.414 72.0916 139.907L31.5463 131.555Z" fill="#99E3F2"/>
</svg>
