<svg width="56" height="56" viewBox="0 0 56 56" fill="none" xmlns="http://www.w3.org/2000/svg">
<path d="M40.1842 25.3639C40.1842 26.2701 39.4498 27.0045 38.5436 27.0045C37.6378 27.0045 36.903 26.2701 36.903 25.3639C36.903 24.4581 37.6378 23.7233 38.5436 23.7233C39.4498 23.7233 40.1842 24.4581 40.1842 25.3639Z" fill="#848F9F"/>
<path d="M38.5419 7.90784C35.2115 7.90784 32.51 10.6029 32.51 13.9397V13.9418C32.51 14.8476 33.2444 15.5816 34.1506 15.5816C35.0568 15.5816 35.7913 14.8459 35.7913 13.9397C35.7913 12.423 37.0179 11.1891 38.544 11.1891C40.0616 11.1891 41.2963 12.4238 41.2963 13.9418C41.2963 15.4594 40.0616 16.6942 38.544 16.6942C37.6378 16.6942 36.9034 17.429 36.9034 18.3348V20.092C36.9034 20.9982 37.6378 21.7327 38.544 21.7327C39.4498 21.7327 40.1846 20.9982 40.1846 20.092V19.749C42.7169 19.0325 44.5776 16.7001 44.5776 13.9418C44.5776 10.6144 41.871 7.90784 38.5419 7.90784Z" fill="#848F9F"/>
<path d="M15.7432 41.8701C17.782 40.2825 19.097 37.807 19.097 35.0291C19.097 30.2486 15.2074 26.3594 10.4269 26.3594C5.64648 26.3594 1.75726 30.2486 1.75726 35.0291C1.75726 37.807 3.07233 40.2825 5.11072 41.8701C2.23364 43.5817 0 46.8142 0 50.8448V54.3594C0 55.2656 0.734436 56 1.64062 56H19.2137C20.1194 56 20.8543 55.2656 20.8543 54.3594V50.8448C20.8543 46.8151 18.6211 43.5821 15.7432 41.8701ZM5.03851 35.0291C5.03851 32.058 7.45587 29.6406 10.4274 29.6406C13.3984 29.6406 15.8158 32.058 15.8158 35.0291C15.8158 38.0005 13.3984 40.4179 10.4274 40.4179C7.45587 40.4179 5.03851 38.0005 5.03851 35.0291ZM17.5731 52.7188H3.28125V50.8448C3.28125 46.8979 6.47449 43.6992 10.4269 43.6992C14.3738 43.6992 17.5726 46.8924 17.5726 50.8448V52.7188H17.5731Z" fill="#848F9F"/>
<path d="M49.0875 0H27.9999C24.1821 0 21.0875 3.08899 21.0875 6.91241V38.5436C21.0875 39.8856 22.6265 40.6704 23.7125 39.8561L30.3041 34.9124H49.0875C52.9054 34.9124 55.9999 31.8234 55.9999 28V6.91241C55.9999 3.09454 52.9109 0 49.0875 0V0ZM52.7187 28C52.7187 30.0072 51.0956 31.6312 49.0875 31.6312H29.7572C29.4022 31.6312 29.0569 31.7465 28.7728 31.9593L24.3688 35.2623V6.91241C24.3688 4.90521 25.9919 3.28125 27.9999 3.28125H49.0875C51.0947 3.28125 52.7187 4.90436 52.7187 6.91241V28Z" fill="#848F9F"/>
</svg>
