<svg width="18" height="15" viewBox="0 0 18 15" fill="none" xmlns="http://www.w3.org/2000/svg">
<path d="M1 2.77778V11.6667C1 12.1382 1.1873 12.5903 1.5207 12.9237C1.8541 13.2571 2.30628 13.4444 2.77778 13.4444H15.2222C15.6937 13.4444 16.1459 13.2571 16.4793 12.9237C16.8127 12.5903 17 12.1382 17 11.6667V4.55556C17 4.08406 16.8127 3.63187 16.4793 3.29848C16.1459 2.96508 15.6937 2.77778 15.2222 2.77778H9.88889L8.11111 1H2.77778C2.30628 1 1.8541 1.1873 1.5207 1.5207C1.1873 1.8541 1 2.30628 1 2.77778V2.77778Z" stroke="#848F9F" stroke-width="2" stroke-linecap="round" stroke-linejoin="round"/>
</svg>
