<svg width="16" height="16" viewBox="0 0 16 16" fill="none" xmlns="http://www.w3.org/2000/svg">
<g clip-path="url(#clip0)">
<path d="M14.4798 3.50077L9.46729 0.378343C8.65764 -0.126011 7.34401 -0.126218 6.53399 0.378343L1.52144 3.50077C0.71179 4.00513 0.711417 4.82342 1.52144 5.32799L6.53399 8.45041C7.34363 8.95477 8.65727 8.95498 9.46729 8.45041L14.4798 5.32799C15.2895 4.82363 15.2899 4.00533 14.4798 3.50077ZM8.75696 6.98031C8.34394 7.2424 7.6726 7.24132 7.26132 6.98031L3.22309 4.41765L7.26132 1.86281C7.67434 1.60151 8.34568 1.60262 8.75696 1.86281L12.7952 4.41765L8.75696 6.98031Z" fill="#848F9F"/>
<path d="M14.4799 7.14063L14.3753 7.07549L9.10815 10.3989L9.10621 10.3986L8.757 10.6202C8.34399 10.8823 7.67264 10.8812 7.26136 10.6202L3.22313 8.0575L3.22404 8.05692L1.64601 7.06299L1.52144 7.14058C0.71179 7.64494 0.711417 8.46324 1.52144 8.9678L6.53399 12.0902C7.34364 12.5946 8.65727 12.5948 9.46729 12.0902L14.4798 8.9678C15.2895 8.46349 15.2899 7.64519 14.4799 7.14063Z" fill="#848F9F"/>
<path d="M14.4798 10.6718L14.3753 10.6067L9.10811 13.9301L9.10616 13.9298L8.75696 14.1514C8.34394 14.4135 7.6726 14.4124 7.26132 14.1514L3.22313 11.5887L3.22404 11.5881L1.64601 10.5942L1.52144 10.6718C0.71179 11.1762 0.711417 11.9945 1.52144 12.4991L6.53399 15.6215C7.34363 16.1258 8.65727 16.1261 9.46729 15.6215L14.4798 12.4991C15.2895 11.9947 15.2899 11.1764 14.4798 10.6718Z" fill="#848F9F"/>
</g>
<defs>
<clipPath id="clip0">
<rect width="16" height="16" fill="white"/>
</clipPath>
</defs>
</svg>
