<svg width="14" height="14" viewBox="0 0 14 14" fill="none" xmlns="http://www.w3.org/2000/svg">
<path d="M10.75 8.5V13V8.5ZM8.5 10.75H13H8.5ZM2.5 5.5H4C4.39782 5.5 4.77936 5.34196 5.06066 5.06066C5.34196 4.77936 5.5 4.39782 5.5 4V2.5C5.5 2.10218 5.34196 1.72064 5.06066 1.43934C4.77936 1.15804 4.39782 1 4 1H2.5C2.10218 1 1.72064 1.15804 1.43934 1.43934C1.15804 1.72064 1 2.10218 1 2.5V4C1 4.39782 1.15804 4.77936 1.43934 5.06066C1.72064 5.34196 2.10218 5.5 2.5 5.5ZM10 5.5H11.5C11.8978 5.5 12.2794 5.34196 12.5607 5.06066C12.842 4.77936 13 4.39782 13 4V2.5C13 2.10218 12.842 1.72064 12.5607 1.43934C12.2794 1.15804 11.8978 1 11.5 1H10C9.60218 1 9.22064 1.15804 8.93934 1.43934C8.65804 1.72064 8.5 2.10218 8.5 2.5V4C8.5 4.39782 8.65804 4.77936 8.93934 5.06066C9.22064 5.34196 9.60218 5.5 10 5.5ZM2.5 13H4C4.39782 13 4.77936 12.842 5.06066 12.5607C5.34196 12.2794 5.5 11.8978 5.5 11.5V10C5.5 9.60218 5.34196 9.22064 5.06066 8.93934C4.77936 8.65804 4.39782 8.5 4 8.5H2.5C2.10218 8.5 1.72064 8.65804 1.43934 8.93934C1.15804 9.22064 1 9.60218 1 10V11.5C1 11.8978 1.15804 12.2794 1.43934 12.5607C1.72064 12.842 2.10218 13 2.5 13Z" stroke="#AAB7C6" stroke-linecap="round" stroke-linejoin="round"/>
</svg>
